<?xml version="1.0" encoding="iso-8859-1"?>
<!-- Generator: Adobe Illustrator 16.0.0, SVG Export Plug-In . SVG Version: 6.00 Build 0)  -->
<!DOCTYPE svg PUBLIC "-//W3C//DTD SVG 1.1//EN" "http://www.w3.org/Graphics/SVG/1.1/DTD/svg11.dtd">
<svg version="1.1" id="Capa_1" xmlns="http://www.w3.org/2000/svg" xmlns:xlink="http://www.w3.org/1999/xlink" x="0px" y="0px"
	 width="612px" height="612px" fill="#000000" viewBox="0 0 612 612" style="enable-background:new 0 0 612 612;" xml:space="preserve">
<g>
	<g id="_x33__4_">
		<g>
			<path d="M535.5,0h-459C34.253,0,0,34.253,0,76.5v459C0,577.747,34.253,612,76.5,612h459c42.247,0,76.5-34.253,76.5-76.5v-459
				C612,34.253,577.747,0,535.5,0z M414.726,464.642c7.555,7.517,7.555,19.699,0,27.215c-7.555,7.517-19.775,7.517-27.33,0
				L215.807,320.879c-4.036-4.016-5.738-9.313-5.47-14.572c-0.268-5.241,1.453-10.558,5.47-14.574l171.589-170.978
				c7.555-7.516,19.775-7.516,27.33,0s7.555,19.699,0,27.215l-158.91,158.336L414.726,464.642z"/>
		</g>
	</g>
</g>
<g>
</g>
<g>
</g>
<g>
</g>
<g>
</g>
<g>
</g>
<g>
</g>
<g>
</g>
<g>
</g>
<g>
</g>
<g>
</g>
<g>
</g>
<g>
</g>
<g>
</g>
<g>
</g>
<g>
</g>
</svg>
