<?xml version="1.0" encoding="iso-8859-1"?>
<!-- Generator: Adobe Illustrator 16.0.0, SVG Export Plug-In . SVG Version: 6.00 Build 0)  -->
<!DOCTYPE svg PUBLIC "-//W3C//DTD SVG 1.1//EN" "http://www.w3.org/Graphics/SVG/1.1/DTD/svg11.dtd">
<svg version="1.1" id="Capa_1" xmlns="http://www.w3.org/2000/svg" xmlns:xlink="http://www.w3.org/1999/xlink" x="0px" y="0px"
	 width="612px" height="612px" fill="#000000" viewBox="0 0 612 612" style="enable-background:new 0 0 612 612;" xml:space="preserve">
<g>
	<g id="_x34__23_">
		<g>
			<path d="M535.5,0h-459C34.253,0,0,34.253,0,76.5v459C0,577.747,34.253,612,76.5,612h459c42.247,0,76.5-34.253,76.5-76.5v-459
				C612,34.253,577.747,0,535.5,0z M396.193,320.879L224.604,491.856c-7.554,7.517-19.775,7.517-27.33,0
				c-7.554-7.516-7.554-19.698,0-27.215l158.909-158.335L197.274,147.97c-7.554-7.516-7.554-19.699,0-27.215s19.775-7.516,27.33,0
				l171.589,170.978c4.035,4.016,5.737,9.333,5.47,14.574C401.95,311.546,400.229,316.863,396.193,320.879z"/>
		</g>
	</g>
</g>
<g>
</g>
<g>
</g>
<g>
</g>
<g>
</g>
<g>
</g>
<g>
</g>
<g>
</g>
<g>
</g>
<g>
</g>
<g>
</g>
<g>
</g>
<g>
</g>
<g>
</g>
<g>
</g>
<g>
</g>
</svg>
