<svg height="512" viewBox="0 0 512 512" width="512" xmlns="http://www.w3.org/2000/svg"><g><g fill="#c7483c"><path d="m288 56a32 32 0 1 0 -48 27.708v52.292h32v-52.292a31.978 31.978 0 0 0 16-27.708z"/><path d="m224 456a32 32 0 1 0 48-27.708v-52.292h-32v52.292a31.978 31.978 0 0 0 -16 27.708z"/><path d="m98.8 128.287a32 32 0 1 0 0 55.424l45.286 26.145 16-27.712-45.295-26.144a31.978 31.978 0 0 0 -15.991-27.713z"/><path d="m413.205 383.713a32 32 0 1 0 0-55.424l-45.286-26.145-16 27.712 45.29 26.144a31.978 31.978 0 0 0 15.996 27.713z"/><path d="m66.8 328.287a32 32 0 1 0 48 27.715l45.286-26.146-16-27.712-45.295 26.145a31.98 31.98 0 0 0 -31.991-.002z"/><path d="m445.205 183.713a32 32 0 1 0 -48-27.715l-45.286 26.146 16 27.712 45.286-26.145a31.98 31.98 0 0 0 32 .002z"/></g><path d="m488 256a32 32 0 0 1 -59.71 16h-37.23a135.862 135.862 0 0 1 -53.67 92.97l18.61 32.24a32 32 0 1 1 -27.71 16l-18.6-32.22a136.414 136.414 0 0 1 -107.38 0l-18.6 32.22a32 32 0 1 1 -27.71-16l18.61-32.24a136.56 136.56 0 0 1 -39.66-46.92 135.031 135.031 0 0 1 -14.01-46.05h-37.23a32 32 0 1 1 0-32h37.23a135.862 135.862 0 0 1 53.67-92.97l-18.61-32.24a32 32 0 1 1 27.71-16l18.6 32.22a136.414 136.414 0 0 1 107.38 0l5.59-9.69 13.01-22.53a32 32 0 1 1 27.71 16l-18.61 32.24a135.862 135.862 0 0 1 53.67 92.97h37.23a32 32 0 0 1 59.71 16z" fill="#d65246"/><path d="m488 256a32 32 0 0 1 -59.71 16h-37.23a135.862 135.862 0 0 1 -53.67 92.97l18.61 32.24a32 32 0 1 1 -27.71 16l-18.6-32.22a136.414 136.414 0 0 1 -107.38 0l-18.6 32.22a32 32 0 1 1 -27.71-16l18.61-32.24a136.56 136.56 0 0 1 -39.66-46.92 161.6 161.6 0 0 0 25.05 1.95 160.092 160.092 0 0 0 155.28-198.68l13.01-22.53a32 32 0 1 1 27.71 16l-18.61 32.24a135.862 135.862 0 0 1 53.67 92.97h37.23a32 32 0 0 1 59.71 16z" fill="#c94c41"/><g fill="#c7483c"><circle cx="224" cy="224" r="32"/><circle cx="320" cy="224" r="32"/><circle cx="224" cy="320" r="32"/><circle cx="320" cy="320" r="32"/></g><circle cx="208" cy="208" fill="#df6257" r="32"/><circle cx="304" cy="208" fill="#df6257" r="32"/><circle cx="208" cy="304" fill="#df6257" r="32"/><circle cx="304" cy="304" fill="#df6257" r="32"/></g></svg>
